<mxfile host="app.diagrams.net" agent="Mozilla/5.0 (Macintosh; Intel Mac OS X 10_15_7) AppleWebKit/537.36 (KHTML, like Gecko) Chrome/137.0.0.0 Safari/537.36" version="27.1.4">
  <diagram name="第 1 页" id="EFmBZRuirdAsGHDMGHzY">
    <mxGraphModel dx="1246" dy="590" grid="1" gridSize="10" guides="1" tooltips="1" connect="1" arrows="1" fold="1" page="1" pageScale="1" pageWidth="4800" pageHeight="4800" math="0" shadow="0">
      <root>
        <mxCell id="0" />
        <mxCell id="1" parent="0" />
        <mxCell id="g5C_LvDEkNhxmviA9g2l-10" style="edgeStyle=orthogonalEdgeStyle;rounded=0;orthogonalLoop=1;jettySize=auto;html=1;exitX=0.5;exitY=1;exitDx=0;exitDy=0;entryX=0.5;entryY=0;entryDx=0;entryDy=0;" edge="1" parent="1" source="g5C_LvDEkNhxmviA9g2l-1" target="g5C_LvDEkNhxmviA9g2l-6">
          <mxGeometry relative="1" as="geometry" />
        </mxCell>
        <mxCell id="g5C_LvDEkNhxmviA9g2l-1" value="A" style="ellipse;whiteSpace=wrap;html=1;aspect=fixed;" vertex="1" parent="1">
          <mxGeometry x="721" y="640" width="80" height="80" as="geometry" />
        </mxCell>
        <mxCell id="g5C_LvDEkNhxmviA9g2l-11" style="edgeStyle=orthogonalEdgeStyle;rounded=0;orthogonalLoop=1;jettySize=auto;html=1;exitX=0.5;exitY=1;exitDx=0;exitDy=0;entryX=0.5;entryY=0;entryDx=0;entryDy=0;" edge="1" parent="1" source="g5C_LvDEkNhxmviA9g2l-2" target="g5C_LvDEkNhxmviA9g2l-7">
          <mxGeometry relative="1" as="geometry" />
        </mxCell>
        <mxCell id="g5C_LvDEkNhxmviA9g2l-2" value="B" style="ellipse;whiteSpace=wrap;html=1;aspect=fixed;" vertex="1" parent="1">
          <mxGeometry x="881" y="640" width="80" height="80" as="geometry" />
        </mxCell>
        <mxCell id="g5C_LvDEkNhxmviA9g2l-12" style="edgeStyle=orthogonalEdgeStyle;rounded=0;orthogonalLoop=1;jettySize=auto;html=1;exitX=0.5;exitY=1;exitDx=0;exitDy=0;entryX=0.5;entryY=0;entryDx=0;entryDy=0;" edge="1" parent="1" source="g5C_LvDEkNhxmviA9g2l-3" target="g5C_LvDEkNhxmviA9g2l-8">
          <mxGeometry relative="1" as="geometry" />
        </mxCell>
        <mxCell id="g5C_LvDEkNhxmviA9g2l-3" value="C" style="ellipse;whiteSpace=wrap;html=1;aspect=fixed;" vertex="1" parent="1">
          <mxGeometry x="1041" y="640" width="80" height="80" as="geometry" />
        </mxCell>
        <mxCell id="g5C_LvDEkNhxmviA9g2l-13" style="edgeStyle=orthogonalEdgeStyle;rounded=0;orthogonalLoop=1;jettySize=auto;html=1;exitX=0.5;exitY=1;exitDx=0;exitDy=0;" edge="1" parent="1" source="g5C_LvDEkNhxmviA9g2l-4" target="g5C_LvDEkNhxmviA9g2l-9">
          <mxGeometry relative="1" as="geometry" />
        </mxCell>
        <mxCell id="g5C_LvDEkNhxmviA9g2l-4" value="D" style="ellipse;whiteSpace=wrap;html=1;aspect=fixed;" vertex="1" parent="1">
          <mxGeometry x="1201" y="640" width="80" height="80" as="geometry" />
        </mxCell>
        <mxCell id="g5C_LvDEkNhxmviA9g2l-5" value="0" style="ellipse;whiteSpace=wrap;html=1;" vertex="1" parent="1">
          <mxGeometry x="940" y="480" width="120" height="80" as="geometry" />
        </mxCell>
        <mxCell id="g5C_LvDEkNhxmviA9g2l-6" value="A1" style="rounded=1;whiteSpace=wrap;html=1;" vertex="1" parent="1">
          <mxGeometry x="721" y="800" width="80" height="40" as="geometry" />
        </mxCell>
        <mxCell id="g5C_LvDEkNhxmviA9g2l-7" value="B1" style="rounded=1;whiteSpace=wrap;html=1;" vertex="1" parent="1">
          <mxGeometry x="881" y="800" width="80" height="40" as="geometry" />
        </mxCell>
        <mxCell id="g5C_LvDEkNhxmviA9g2l-8" value="C1" style="rounded=1;whiteSpace=wrap;html=1;" vertex="1" parent="1">
          <mxGeometry x="1041" y="800" width="80" height="40" as="geometry" />
        </mxCell>
        <mxCell id="g5C_LvDEkNhxmviA9g2l-9" value="D1" style="rounded=1;whiteSpace=wrap;html=1;" vertex="1" parent="1">
          <mxGeometry x="1201" y="800" width="80" height="40" as="geometry" />
        </mxCell>
        <mxCell id="g5C_LvDEkNhxmviA9g2l-15" value="&lt;p&gt;已知：&lt;/p&gt;&lt;p&gt;A 知道 B1、C1、D1 是好的还是坏的。&lt;/p&gt;&lt;p&gt;B 知道 A1、C1、D1 是好的还是坏的。&lt;/p&gt;&lt;p&gt;C 知道 A1、B1、D1 是好的还是坏的。&lt;/p&gt;&lt;p&gt;&lt;br&gt;&lt;/p&gt;&lt;p&gt;前提1：至少有一个是坏的。&lt;/p&gt;&lt;p&gt;前提2：如果知道是坏的，当天晚上就会杀掉他。&lt;/p&gt;&lt;p&gt;&lt;br&gt;&lt;/p&gt;&lt;p&gt;我们假设总坏人数是M。&lt;/p&gt;&lt;p&gt;坏人的老婆知道的坏人数是 M-1。&lt;/p&gt;&lt;p&gt;好人的老婆知道的坏人数是 M。&lt;/p&gt;&lt;p&gt;&lt;br&gt;&lt;/p&gt;&lt;p&gt;第一天晚上：至少有1个坏人，如果只有一个坏人，即M=1，此时M-1=0, 则坏人老婆知道坏人就是自己丈夫，坏人会被杀掉。好人老婆知道的坏人数量刚好是1，好人丈夫不会被杀掉。&lt;/p&gt;&lt;p&gt;&lt;span style=&quot;background-color: transparent; color: light-dark(rgb(0, 0, 0), rgb(255, 255, 255));&quot;&gt;第二天晚上：第一天没有人被杀掉，说明至少有2个坏人。如果只有两个坏人。即M=2，此时坏人老婆知道的坏人数是1，其余人知道的坏人数是2，此时坏人会被杀掉，但是没有被杀掉，说明坏人至少是3个。&lt;/span&gt;&lt;/p&gt;&lt;p&gt;依次类推。&lt;/p&gt;&lt;p&gt;&lt;br&gt;&lt;/p&gt;&lt;p&gt;基于上面我们可以总结出公式：&lt;/p&gt;&lt;p&gt;假设总坏人数是M。&lt;span style=&quot;background-color: transparent; color: light-dark(rgb(0, 0, 0), rgb(255, 255, 255));&quot;&gt;坏人的老婆知道的坏人数是 M-1。&lt;/span&gt;&lt;span style=&quot;background-color: transparent; color: light-dark(rgb(0, 0, 0), rgb(255, 255, 255));&quot;&gt;好人的老婆知道的坏人数是 M。&lt;/span&gt;&lt;/p&gt;&lt;p&gt;&lt;span style=&quot;background-color: transparent; color: light-dark(rgb(0, 0, 0), rgb(255, 255, 255));&quot;&gt;假设第D天坏人会被杀掉。此时要满足：&lt;/span&gt;&lt;/p&gt;&lt;p&gt;D = (M-1)+1，即 M = D +1&lt;/p&gt;&lt;p&gt;&lt;br&gt;&lt;/p&gt;&lt;p&gt;&lt;br&gt;&lt;/p&gt;&lt;p&gt;&lt;br&gt;&lt;/p&gt;&lt;p&gt;&lt;br&gt;&lt;/p&gt;&lt;p&gt;&lt;br&gt;&lt;/p&gt;&lt;p&gt;&lt;br&gt;&lt;/p&gt;&lt;p&gt;&lt;br&gt;&lt;/p&gt;&lt;p&gt;&lt;br&gt;&lt;/p&gt;&lt;p&gt;&lt;br&gt;&lt;/p&gt;&lt;p&gt;&lt;br&gt;&lt;/p&gt;&lt;p&gt;&lt;br&gt;&lt;/p&gt;" style="text;html=1;align=left;verticalAlign=middle;whiteSpace=wrap;rounded=0;" vertex="1" parent="1">
          <mxGeometry x="1360" y="479" width="450" height="691" as="geometry" />
        </mxCell>
        <mxCell id="g5C_LvDEkNhxmviA9g2l-17" value="总是" style="rounded=0;whiteSpace=wrap;html=1;" vertex="1" parent="1">
          <mxGeometry x="861" y="1300" width="120" height="60" as="geometry" />
        </mxCell>
        <mxCell id="g5C_LvDEkNhxmviA9g2l-18" value="偶尔" style="rounded=0;whiteSpace=wrap;html=1;" vertex="1" parent="1">
          <mxGeometry x="861" y="1360" width="119" height="60" as="geometry" />
        </mxCell>
        <mxCell id="g5C_LvDEkNhxmviA9g2l-25" value="&lt;div&gt;老师角度：&lt;/div&gt;1、&amp;nbsp; &amp;nbsp;老师每次点名、 学生每次不逃课。&lt;div&gt;2、老师每次不点名、学生每次不逃课。&lt;/div&gt;&lt;div&gt;3、老师每次不点名、学生每次逃课。&lt;/div&gt;&lt;div&gt;4、&amp;nbsp; &amp;nbsp; 老师偶尔点名、学生偶尔逃课。&lt;/div&gt;&lt;div&gt;&lt;br&gt;&lt;/div&gt;&lt;div&gt;共有 3*3 九种情况。&lt;/div&gt;&lt;div&gt;1、&amp;nbsp; &amp;nbsp;老师每次点名、 学生每次不逃课。&lt;div&gt;2、老师每次不点名、学生每次不逃课。&lt;/div&gt;&lt;div&gt;3、老师每次不点名、学生每次逃课。&lt;/div&gt;&lt;div&gt;4、&amp;nbsp; &amp;nbsp; 老师偶尔点名、学生偶尔逃课。&lt;/div&gt;&lt;/div&gt;" style="text;html=1;align=left;verticalAlign=middle;whiteSpace=wrap;rounded=0;" vertex="1" parent="1">
          <mxGeometry x="1510" y="1280" width="300" height="270" as="geometry" />
        </mxCell>
        <mxCell id="g5C_LvDEkNhxmviA9g2l-26" value="不" style="rounded=0;whiteSpace=wrap;html=1;" vertex="1" parent="1">
          <mxGeometry x="861" y="1420" width="120" height="60" as="geometry" />
        </mxCell>
        <mxCell id="g5C_LvDEkNhxmviA9g2l-35" value="总是" style="rounded=0;whiteSpace=wrap;html=1;" vertex="1" parent="1">
          <mxGeometry x="981" y="1240" width="120" height="60" as="geometry" />
        </mxCell>
        <mxCell id="g5C_LvDEkNhxmviA9g2l-36" value="偶尔" style="rounded=0;whiteSpace=wrap;html=1;" vertex="1" parent="1">
          <mxGeometry x="1101" y="1240" width="120" height="60" as="geometry" />
        </mxCell>
        <mxCell id="g5C_LvDEkNhxmviA9g2l-37" value="不" style="rounded=0;whiteSpace=wrap;html=1;" vertex="1" parent="1">
          <mxGeometry x="1221" y="1240" width="120" height="60" as="geometry" />
        </mxCell>
        <mxCell id="g5C_LvDEkNhxmviA9g2l-38" value="学生 逃课&lt;div&gt;&lt;br&gt;&lt;/div&gt;&lt;div&gt;老师 点名&lt;/div&gt;" style="rounded=0;whiteSpace=wrap;html=1;" vertex="1" parent="1">
          <mxGeometry x="861" y="1240" width="120" height="60" as="geometry" />
        </mxCell>
        <mxCell id="g5C_LvDEkNhxmviA9g2l-40" value="" style="endArrow=none;html=1;rounded=0;exitX=0;exitY=0;exitDx=0;exitDy=0;entryX=1;entryY=1;entryDx=0;entryDy=0;" edge="1" parent="1" source="g5C_LvDEkNhxmviA9g2l-38" target="g5C_LvDEkNhxmviA9g2l-38">
          <mxGeometry width="50" height="50" relative="1" as="geometry">
            <mxPoint x="1220" y="1360" as="sourcePoint" />
            <mxPoint x="1270" y="1310" as="targetPoint" />
          </mxGeometry>
        </mxCell>
        <mxCell id="g5C_LvDEkNhxmviA9g2l-43" value="1&lt;br&gt;&lt;div&gt;&lt;br&gt;&lt;/div&gt;&lt;div&gt;1&lt;/div&gt;" style="rounded=0;whiteSpace=wrap;html=1;" vertex="1" parent="1">
          <mxGeometry x="981" y="1300" width="120" height="60" as="geometry" />
        </mxCell>
        <mxCell id="g5C_LvDEkNhxmviA9g2l-44" value="" style="endArrow=none;html=1;rounded=0;exitX=0;exitY=0;exitDx=0;exitDy=0;entryX=1;entryY=1;entryDx=0;entryDy=0;" edge="1" parent="1" source="g5C_LvDEkNhxmviA9g2l-43" target="g5C_LvDEkNhxmviA9g2l-43">
          <mxGeometry width="50" height="50" relative="1" as="geometry">
            <mxPoint x="1340" y="1420" as="sourcePoint" />
            <mxPoint x="1390" y="1370" as="targetPoint" />
          </mxGeometry>
        </mxCell>
        <mxCell id="g5C_LvDEkNhxmviA9g2l-45" value="逃课&lt;div&gt;&lt;br&gt;&lt;/div&gt;&lt;div&gt;4&lt;/div&gt;" style="rounded=0;whiteSpace=wrap;html=1;" vertex="1" parent="1">
          <mxGeometry x="1101" y="1300" width="120" height="60" as="geometry" />
        </mxCell>
        <mxCell id="g5C_LvDEkNhxmviA9g2l-46" value="" style="endArrow=none;html=1;rounded=0;exitX=0;exitY=0;exitDx=0;exitDy=0;entryX=1;entryY=1;entryDx=0;entryDy=0;" edge="1" parent="1" source="g5C_LvDEkNhxmviA9g2l-45" target="g5C_LvDEkNhxmviA9g2l-45">
          <mxGeometry width="50" height="50" relative="1" as="geometry">
            <mxPoint x="1460" y="1420" as="sourcePoint" />
            <mxPoint x="1510" y="1370" as="targetPoint" />
          </mxGeometry>
        </mxCell>
        <mxCell id="g5C_LvDEkNhxmviA9g2l-47" value="逃课&lt;div&gt;&lt;br&gt;&lt;/div&gt;&lt;div&gt;7&lt;/div&gt;" style="rounded=0;whiteSpace=wrap;html=1;" vertex="1" parent="1">
          <mxGeometry x="1221" y="1300" width="120" height="60" as="geometry" />
        </mxCell>
        <mxCell id="g5C_LvDEkNhxmviA9g2l-48" value="" style="endArrow=none;html=1;rounded=0;exitX=0;exitY=0;exitDx=0;exitDy=0;entryX=1;entryY=1;entryDx=0;entryDy=0;" edge="1" parent="1" source="g5C_LvDEkNhxmviA9g2l-47" target="g5C_LvDEkNhxmviA9g2l-47">
          <mxGeometry width="50" height="50" relative="1" as="geometry">
            <mxPoint x="1580" y="1420" as="sourcePoint" />
            <mxPoint x="1630" y="1370" as="targetPoint" />
          </mxGeometry>
        </mxCell>
        <mxCell id="g5C_LvDEkNhxmviA9g2l-49" value="逃课&lt;div&gt;&lt;br&gt;&lt;/div&gt;&lt;div&gt;2&lt;/div&gt;" style="rounded=0;whiteSpace=wrap;html=1;" vertex="1" parent="1">
          <mxGeometry x="981" y="1360" width="120" height="60" as="geometry" />
        </mxCell>
        <mxCell id="g5C_LvDEkNhxmviA9g2l-50" value="" style="endArrow=none;html=1;rounded=0;exitX=0;exitY=0;exitDx=0;exitDy=0;entryX=1;entryY=1;entryDx=0;entryDy=0;" edge="1" parent="1" source="g5C_LvDEkNhxmviA9g2l-49" target="g5C_LvDEkNhxmviA9g2l-49">
          <mxGeometry width="50" height="50" relative="1" as="geometry">
            <mxPoint x="1629" y="1620" as="sourcePoint" />
            <mxPoint x="1679" y="1570" as="targetPoint" />
          </mxGeometry>
        </mxCell>
        <mxCell id="g5C_LvDEkNhxmviA9g2l-51" value="逃课&lt;div&gt;&lt;br&gt;&lt;/div&gt;&lt;div&gt;5&lt;/div&gt;" style="rounded=0;whiteSpace=wrap;html=1;" vertex="1" parent="1">
          <mxGeometry x="1101" y="1360" width="120" height="60" as="geometry" />
        </mxCell>
        <mxCell id="g5C_LvDEkNhxmviA9g2l-52" value="" style="endArrow=none;html=1;rounded=0;exitX=0;exitY=0;exitDx=0;exitDy=0;entryX=1;entryY=1;entryDx=0;entryDy=0;" edge="1" parent="1" source="g5C_LvDEkNhxmviA9g2l-51" target="g5C_LvDEkNhxmviA9g2l-51">
          <mxGeometry width="50" height="50" relative="1" as="geometry">
            <mxPoint x="1460" y="1480" as="sourcePoint" />
            <mxPoint x="1510" y="1430" as="targetPoint" />
          </mxGeometry>
        </mxCell>
        <mxCell id="g5C_LvDEkNhxmviA9g2l-53" value="逃课&lt;div&gt;&lt;br&gt;&lt;/div&gt;&lt;div&gt;8&lt;/div&gt;" style="rounded=0;whiteSpace=wrap;html=1;" vertex="1" parent="1">
          <mxGeometry x="1221" y="1360" width="120" height="60" as="geometry" />
        </mxCell>
        <mxCell id="g5C_LvDEkNhxmviA9g2l-54" value="" style="endArrow=none;html=1;rounded=0;exitX=0;exitY=0;exitDx=0;exitDy=0;entryX=1;entryY=1;entryDx=0;entryDy=0;" edge="1" parent="1" source="g5C_LvDEkNhxmviA9g2l-53" target="g5C_LvDEkNhxmviA9g2l-53">
          <mxGeometry width="50" height="50" relative="1" as="geometry">
            <mxPoint x="1580" y="1480" as="sourcePoint" />
            <mxPoint x="1630" y="1430" as="targetPoint" />
          </mxGeometry>
        </mxCell>
        <mxCell id="g5C_LvDEkNhxmviA9g2l-55" value="逃课&lt;div&gt;&lt;br&gt;&lt;/div&gt;&lt;div&gt;3&lt;/div&gt;" style="rounded=0;whiteSpace=wrap;html=1;" vertex="1" parent="1">
          <mxGeometry x="980" y="1420" width="120" height="60" as="geometry" />
        </mxCell>
        <mxCell id="g5C_LvDEkNhxmviA9g2l-56" value="" style="endArrow=none;html=1;rounded=0;exitX=0;exitY=0;exitDx=0;exitDy=0;entryX=1;entryY=1;entryDx=0;entryDy=0;" edge="1" parent="1" source="g5C_LvDEkNhxmviA9g2l-55" target="g5C_LvDEkNhxmviA9g2l-55">
          <mxGeometry width="50" height="50" relative="1" as="geometry">
            <mxPoint x="1339" y="1540" as="sourcePoint" />
            <mxPoint x="1389" y="1490" as="targetPoint" />
            <Array as="points">
              <mxPoint x="1060" y="1460" />
            </Array>
          </mxGeometry>
        </mxCell>
        <mxCell id="g5C_LvDEkNhxmviA9g2l-57" value="逃课&lt;div&gt;&lt;br&gt;&lt;/div&gt;&lt;div&gt;6&lt;/div&gt;" style="rounded=0;whiteSpace=wrap;html=1;" vertex="1" parent="1">
          <mxGeometry x="1101" y="1420" width="120" height="60" as="geometry" />
        </mxCell>
        <mxCell id="g5C_LvDEkNhxmviA9g2l-58" value="" style="endArrow=none;html=1;rounded=0;exitX=0;exitY=0;exitDx=0;exitDy=0;entryX=1;entryY=1;entryDx=0;entryDy=0;" edge="1" parent="1" source="g5C_LvDEkNhxmviA9g2l-57" target="g5C_LvDEkNhxmviA9g2l-57">
          <mxGeometry width="50" height="50" relative="1" as="geometry">
            <mxPoint x="1460" y="1540" as="sourcePoint" />
            <mxPoint x="1510" y="1490" as="targetPoint" />
          </mxGeometry>
        </mxCell>
        <mxCell id="g5C_LvDEkNhxmviA9g2l-59" value="逃课&lt;div&gt;&lt;br&gt;&lt;/div&gt;&lt;div&gt;9&lt;/div&gt;" style="rounded=0;whiteSpace=wrap;html=1;" vertex="1" parent="1">
          <mxGeometry x="1221" y="1420" width="120" height="60" as="geometry" />
        </mxCell>
        <mxCell id="g5C_LvDEkNhxmviA9g2l-60" value="" style="endArrow=none;html=1;rounded=0;exitX=0;exitY=0;exitDx=0;exitDy=0;entryX=1;entryY=1;entryDx=0;entryDy=0;" edge="1" parent="1" source="g5C_LvDEkNhxmviA9g2l-59" target="g5C_LvDEkNhxmviA9g2l-59">
          <mxGeometry width="50" height="50" relative="1" as="geometry">
            <mxPoint x="1580" y="1540" as="sourcePoint" />
            <mxPoint x="1630" y="1490" as="targetPoint" />
          </mxGeometry>
        </mxCell>
      </root>
    </mxGraphModel>
  </diagram>
</mxfile>
